<svg xmlns="http://www.w3.org/2000/svg" viewBox="0 0 97.641 101.616"><defs><style>.a{fill-rule:evenodd;}</style></defs><path class="a" d="M85.711,0A12.185,12.185,0,0,1,97.641,12.415V89.2a12.185,12.185,0,0,1-11.929,12.415H11.929A12.185,12.185,0,0,1,0,89.2V12.415A12.185,12.185,0,0,1,11.929,0H85.711ZM48.82,16.076c-9.064,0-10.2.04-13.76.209a23.658,23.658,0,0,0-8.1,1.615,16.309,16.309,0,0,0-5.911,4.006A17.112,17.112,0,0,0,17.2,28.057a26.409,26.409,0,0,0-1.551,8.431c-.162,3.7-.2,4.887-.2,14.32s.038,10.615.2,14.32A26.409,26.409,0,0,0,17.2,73.559a17.112,17.112,0,0,0,3.849,6.152,16.307,16.307,0,0,0,5.911,4.006,23.663,23.663,0,0,0,8.1,1.614c3.559.169,4.7.209,13.76.209s10.2-.04,13.76-.209a23.663,23.663,0,0,0,8.1-1.614,16.309,16.309,0,0,0,5.911-4.006,17.112,17.112,0,0,0,3.849-6.152,26.4,26.4,0,0,0,1.551-8.431c.162-3.7.2-4.887.2-14.32s-.038-10.615-.2-14.32a26.4,26.4,0,0,0-1.551-8.431,17.112,17.112,0,0,0-3.849-6.152A16.31,16.31,0,0,0,70.681,17.9a23.658,23.658,0,0,0-8.1-1.615c-3.559-.169-4.7-.209-13.76-.209Zm0,6.258c8.911,0,9.967.035,13.486.2a17.85,17.85,0,0,1,6.2,1.2,10.313,10.313,0,0,1,3.837,2.6,10.815,10.815,0,0,1,2.5,3.994,19.9,19.9,0,0,1,1.149,6.449c.161,3.662.195,4.761.195,14.035s-.034,10.372-.195,14.035a19.9,19.9,0,0,1-1.149,6.449,10.813,10.813,0,0,1-2.5,3.994,10.31,10.31,0,0,1-3.837,2.6,17.84,17.84,0,0,1-6.2,1.2c-3.518.167-4.574.2-13.486.2s-9.967-.036-13.486-.2a17.84,17.84,0,0,1-6.2-1.2,10.31,10.31,0,0,1-3.837-2.6,10.811,10.811,0,0,1-2.5-3.994,19.908,19.908,0,0,1-1.149-6.449c-.161-3.662-.195-4.761-.195-14.035s.034-10.372.195-14.035A19.908,19.908,0,0,1,22.8,30.324a10.813,10.813,0,0,1,2.5-3.994,10.313,10.313,0,0,1,3.837-2.6,17.85,17.85,0,0,1,6.2-1.2c3.519-.167,4.575-.2,13.486-.2Zm0,10.639c-9.465,0-17.138,7.985-17.138,17.835S39.355,68.643,48.82,68.643s17.138-7.985,17.138-17.835S58.285,32.973,48.82,32.973Zm0,29.413A11.586,11.586,0,1,1,59.945,50.808,11.357,11.357,0,0,1,48.82,62.385ZM70.64,32.268a4.008,4.008,0,1,1-4-4.168,4.089,4.089,0,0,1,4,4.168Z"/></svg>