<svg xmlns="http://www.w3.org/2000/svg" viewBox="0 0 98.358 92.147"><g transform="translate(-1.998 -1.998)"><path d="M88.022,94.14H14.3a12.2,12.2,0,0,1-8.781-3.291A10.672,10.672,0,0,1,2,82.688V13.521A10.669,10.669,0,0,1,5.517,5.295,12.2,12.2,0,0,1,14.3,2H88.057a12.2,12.2,0,0,1,8.781,3.291,10.669,10.669,0,0,1,3.512,8.226v69.1c-.039,6.358-5.541,11.5-12.328,11.517ZM39.376,72.389a38.213,38.213,0,0,0,24.2-8.292A36.4,36.4,0,0,0,74.394,49.059,32.464,32.464,0,0,0,76.572,37.97V35.864A26.8,26.8,0,0,0,80.084,32.9,27.8,27.8,0,0,0,83,29.612h0a22.993,22.993,0,0,1-7.306,1.909h0a14.718,14.718,0,0,0,2.74-1.974,14.96,14.96,0,0,0,2.88-4.705,23.754,23.754,0,0,1-5.374,2.27,19.62,19.62,0,0,1-2.985.691,14.049,14.049,0,0,0-9.483-3.817,13.541,13.541,0,0,0-9.2,3.488A11.528,11.528,0,0,0,50.3,36.259a12.371,12.371,0,0,0,.351,2.8,47.4,47.4,0,0,1-5.725-.658,45.726,45.726,0,0,1-12.609-4.9,38.629,38.629,0,0,1-8.675-7.5,11.967,11.967,0,0,0,1.4,14.051,9.422,9.422,0,0,0,2.564,2.2h0a13.787,13.787,0,0,1-5.8-1.481,12.152,12.152,0,0,0,3.969,8.95,13.241,13.241,0,0,0,4.566,2.632,9.793,9.793,0,0,0,1.826.559,4.971,4.971,0,0,1-1.475.329h-2a15.429,15.429,0,0,1-2.318-.165,12.44,12.44,0,0,0,5.374,6.581,13.636,13.636,0,0,0,6.814,1.909,24.963,24.963,0,0,1-3.688,2.369,27.794,27.794,0,0,1-12.047,2.9q-1.755.087-3.512,0a38.256,38.256,0,0,0,20.055,5.561Z" transform="translate(0 0)"/></g></svg>